<?xml version="1.0" encoding="UTF-8" ?>
<svg
  id="Layer_2"
  data-name="Layer 2"
  xmlns="http://www.w3.org/2000/svg"
  viewBox="0 0 430.61 368.29"
>
  <defs>
    <style>
      .cls-1 {
        fill: none;
        stroke: #4ade80;
        stroke-miterlimit: 10;
        stroke-width: 45px;
      }
    </style>
  </defs>
  <g id="Layer_3" data-name="Layer 3">
    <path
      class="cls-1"
      d="m408.11,138.17c0,44.16-35.8,79.96-79.96,79.96v115.67c0,6.62-5.36,11.99-11.98,11.99H114.44c-6.62,0-11.98-5.37-11.98-11.99v-115.67c-44.16,0-79.96-35.8-79.96-79.96S58.3,58.22,102.46,58.22c13.27,0,25.78,3.23,36.79,8.96,14.58-26.63,42.86-44.68,75.36-44.68s61.18,18.31,75.66,45.25c11.27-6.08,24.17-9.53,37.88-9.53,44.16,0,79.96,35.8,79.96,79.95Z"
    />
  </g>
  <g id="Layer_4" data-name="Layer 4">
    <path class="cls-1" d="m101.94,218.14c13.06,0,25.39-3.13,36.28-8.68" />
    <path class="cls-1" d="m267.86,190.1c14.66,17.15,36.46,28.01,60.79,28.01" />
  </g>
</svg>
